<svg width="37" height="37" viewBox="0 0 37 37" fill="none" xmlns="http://www.w3.org/2000/svg">
<path fill-rule="evenodd" clip-rule="evenodd" d="M37 18.5C37 28.7173 28.7173 37 18.5 37C8.28273 37 0 28.7173 0 18.5C0 8.28273 8.28273 0 18.5 0C28.7173 0 37 8.28273 37 18.5ZM18.5 9.84926C19.3043 9.84926 19.9563 10.5013 19.9563 11.3056V17.0437H25.6945C26.4988 17.0437 27.1508 17.6957 27.1508 18.5C27.1508 19.3043 26.4988 19.9563 25.6945 19.9563H19.9563V25.6945C19.9563 26.4988 19.3043 27.1508 18.5 27.1508C17.6957 27.1508 17.0437 26.4988 17.0437 25.6945V19.9563H11.3056C10.5013 19.9563 9.84926 19.3043 9.84926 18.5C9.84926 17.6957 10.5013 17.0437 11.3056 17.0437H17.0437V11.3056C17.0437 10.5013 17.6957 9.84926 18.5 9.84926Z" fill="#D2D8DD"/>
</svg>
