<svg width="20" height="20" viewBox="0 0 20 20" fill="none" xmlns="http://www.w3.org/2000/svg">
<path d="M14.09 14.8264C12.7691 15.8851 11.1607 16.4716 9.5 16.5001C4.09091 16.5001 1 10.0001 1 10.0001C1.96119 8.11668 3.29433 6.47114 4.91 5.17389L7.86182 8.27764C7.63406 8.50079 7.45138 8.76989 7.32468 9.06889C7.19797 9.36789 7.12984 9.69065 7.12435 10.0179C7.11886 10.3452 7.17612 10.6703 7.29271 10.9738C7.4093 11.2773 7.58284 11.553 7.80297 11.7845C8.0231 12.016 8.28532 12.1984 8.57397 12.321C8.86263 12.4436 9.17181 12.5038 9.48307 12.4981C9.79433 12.4923 10.1013 12.4206 10.3857 12.2874C10.67 12.1542 10.926 11.9621 11.1382 11.7226L14.09 14.8264Z" fill="#4A4A4A"/>
<path d="M7.88275 3.23997C8.41465 3.10906 9.54377 2.99866 10.09 3.00001C15.4991 3.00001 18.59 9.5 18.59 9.5C18.121 10.4227 17.5616 11.2913 16.921 12.0919L7.88275 3.23997Z" fill="#4A4A4A"/>
<path d="M14.09 14.8264C12.7691 15.8851 11.1607 16.4716 9.5 16.5001C4.09091 16.5001 1 10.0001 1 10.0001C1.96119 8.11668 3.29433 6.47114 4.91 5.17389L7.86182 8.27764C7.63406 8.50079 7.45138 8.76989 7.32468 9.06889C7.19797 9.36789 7.12984 9.69065 7.12435 10.0179C7.11886 10.3452 7.17612 10.6703 7.29271 10.9738C7.4093 11.2773 7.58284 11.553 7.80297 11.7845C8.0231 12.016 8.28532 12.1984 8.57397 12.321C8.86263 12.4436 9.17181 12.5038 9.48307 12.4981C9.79433 12.4923 10.1013 12.4206 10.3857 12.2874C10.67 12.1542 10.926 11.9621 11.1382 11.7226L14.09 14.8264Z" stroke="#4A4A4A" stroke-linecap="round" stroke-linejoin="round"/>
<path d="M7.88275 3.23997C8.41465 3.10906 9.54377 2.99866 10.09 3.00001C15.4991 3.00001 18.59 9.5 18.59 9.5C18.121 10.4227 17.5616 11.2913 16.921 12.0919L7.88275 3.23997Z" stroke="#4A4A4A" stroke-linecap="round" stroke-linejoin="round"/>
<path d="M3.59 3L17.59 17" stroke="#4A4A4A" stroke-width="2" stroke-linecap="round" stroke-linejoin="round"/>
</svg>
