<svg width="20" height="20" viewBox="0 0 20 20" fill="none" xmlns="http://www.w3.org/2000/svg">
<path fill-rule="evenodd" clip-rule="evenodd" d="M9.99999 18.3332C14.6024 18.3332 18.3333 14.6022 18.3333 9.99984C18.3333 5.39746 14.6024 1.6665 9.99999 1.6665C5.39762 1.6665 1.66666 5.39746 1.66666 9.99984C1.66666 14.6022 5.39762 18.3332 9.99999 18.3332ZM13.2071 6.79277C13.5976 7.1833 13.5976 7.81646 13.2071 8.20698L11.4142 9.99988L13.2071 11.7928C13.5976 12.1833 13.5976 12.8165 13.2071 13.207C12.8166 13.5975 12.1834 13.5975 11.7929 13.207L10 11.4141L8.20711 13.207C7.81658 13.5975 7.18342 13.5975 6.79289 13.207C6.40237 12.8165 6.40237 12.1833 6.79289 11.7928L8.58579 9.99988L6.79289 8.20698C6.40237 7.81646 6.40237 7.1833 6.79289 6.79277C7.18342 6.40225 7.81658 6.40225 8.20711 6.79277L10 8.58566L11.7929 6.79277C12.1834 6.40225 12.8166 6.40225 13.2071 6.79277Z" fill="#4A4A4A"/>
</svg>
